<svg width="1440" height="136" viewBox="0 0 1440 136" fill="none" xmlns="http://www.w3.org/2000/svg">
<g opacity="0.2" filter="url(#filter0_d_1_236)">
<g clip-path="url(#clip0_1_236)">
<path d="M81.1127 51.0161L104.5 36.5L81.1127 21.9839L57.7256 36.5L81.1127 51.0161Z" fill="#F0F0F0"/>
<path d="M338.371 51.0161L361.758 36.5L338.371 21.9839L314.984 36.5L338.371 51.0161Z" fill="#F0F0F0"/>
<path d="M595.629 51.0161L619.016 36.5L595.629 21.9839L572.242 36.5L595.629 51.0161Z" fill="#F0F0F0"/>
<path d="M426.677 76.016L463.774 98.9998L500.871 76.016L463.774 53.0321L426.677 76.016Z" fill="#F0F0F0"/>
<path d="M171 76.016L208.097 98.9998L245.194 76.016L208.097 53.0321L171 76.016Z" fill="#F0F0F0"/>
<path d="M-176.952 80.4516L-147.113 99L-48.3226 38.1129L50.4677 99L80.3065 80.4516L110.145 99L208.935 38.1129L307.726 99L337.565 80.4516L367.403 99L466.194 38.1129L564.984 99L594.823 80.4516L624.661 99L723.452 38.1129V34.8871L624.661 -26L594.823 -7.45161L564.984 -26L466.194 34.8871L367.403 -26L337.565 -7.45161L307.726 -26L208.935 34.8871L110.145 -26L80.3065 -7.45161L50.4677 -26L-48.3226 34.8871L-147.113 -26L-176.952 -7.45161L-206.79 -26L-308 36.5L-206.79 99L-176.952 80.4516ZM624.661 -11.8871L702.887 36.5L624.661 84.8871L606.113 73.5968L665.79 36.5L606.113 -0.596773L624.661 -11.8871ZM643.21 36.5L594.823 66.3387L546.435 36.5L594.823 6.66129L643.21 36.5ZM564.984 -11.8871L583.532 -0.596773L523.855 36.5L583.532 73.5968L564.984 84.8871L486.758 36.5L564.984 -11.8871ZM367.403 -11.8871L445.629 36.5L367.403 84.8871L349.258 73.5968L408.935 36.5L349.258 -0.596773L367.403 -11.8871ZM385.952 36.5L337.565 66.3387L289.177 36.5L337.565 6.66129L385.952 36.5ZM307.726 -11.8871L326.274 -0.596773L266.597 36.5L326.274 73.5968L307.726 84.8871L229.5 36.5L307.726 -11.8871ZM110.145 -11.8871L188.371 36.5L110.145 84.8871L92 73.5968L151.677 36.5L92 -0.596773L110.145 -11.8871ZM128.694 36.5L80.3065 66.3387L31.9194 36.5L80.3065 6.66129L128.694 36.5ZM50.4677 -11.8871L69.0161 -0.596773L9.33868 36.5L69.0161 73.5968L50.4677 84.8871L-27.7581 36.5L50.4677 -11.8871ZM-147.113 -11.8871L-68.8871 36.5L-147.113 84.8871L-165.661 73.5968L-105.984 36.5L-165.661 -0.596773L-147.113 -11.8871ZM-176.952 6.66129L-128.565 36.5L-176.952 66.3387L-225.339 36.5L-176.952 6.66129ZM-206.79 -11.8871L-188.242 -0.596773L-247.919 36.5L-188.242 73.5968L-206.79 84.8871L-285.016 36.5L-206.79 -11.8871Z" fill="#F0F0F0"/>
<path d="M855.306 51.0161L878.693 36.5L855.306 21.9839L831.919 36.5L855.306 51.0161Z" fill="#F0F0F0"/>
<path d="M1112.56 51.0161L1135.95 36.5L1112.56 21.9839L1089.18 36.5L1112.56 51.0161Z" fill="#F0F0F0"/>
<path d="M943.613 76.016L980.709 98.9998L1017.81 76.016L980.709 53.0321L943.613 76.016Z" fill="#F0F0F0"/>
<path d="M1202.61 76.016L1239.71 98.9998L1276.81 76.016L1239.71 53.0321L1202.61 76.016Z" fill="#F0F0F0"/>
<path d="M686.355 76.016L723.452 98.9998L760.549 76.016L723.452 53.0321L686.355 76.016Z" fill="#F0F0F0"/>
<path d="M1369.82 51.0161L1393.21 36.5L1369.82 21.9839L1346.44 36.5L1369.82 51.0161Z" fill="#F0F0F0"/>
<path d="M854.5 80.4516L884.339 99L983.129 38.1129L1081.92 99L1111.76 80.4516L1141.6 99L1240.39 38.1129L1339.18 99L1369.02 80.4516L1398.85 99L1497.65 38.1129L1596.44 99L1626.27 80.4516L1656.11 99L1754.9 38.1129V34.8871L1656.11 -26L1626.27 -7.45161L1596.44 -26L1497.65 34.8871L1398.85 -26L1369.02 -7.45161L1339.18 -26L1240.39 34.8871L1141.6 -26L1111.76 -7.45161L1081.92 -26L983.129 34.8871L884.339 -26L854.5 -7.45161L824.661 -26L723.452 36.5L824.661 99L854.5 80.4516ZM1656.11 -11.8871L1734.34 36.5L1656.11 84.8871L1637.56 73.5968L1697.24 36.5L1637.56 -0.596773L1656.11 -11.8871ZM1674.66 36.5L1626.27 66.3387L1577.89 36.5L1626.27 6.66129L1674.66 36.5ZM1596.44 -11.8871L1614.98 -0.596773L1555.31 36.5L1614.98 73.5968L1596.44 84.8871L1518.21 36.5L1596.44 -11.8871ZM1398.85 -11.8871L1477.08 36.5L1398.85 84.8871L1380.31 73.5968L1439.98 36.5L1380.31 -0.596773L1398.85 -11.8871ZM1417.4 36.5L1369.02 66.3387L1320.63 36.5L1369.02 6.66129L1417.4 36.5ZM1339.18 -11.8871L1357.73 -0.596773L1298.05 36.5L1357.73 73.5968L1339.18 84.8871L1260.95 36.5L1339.18 -11.8871ZM1141.6 -11.8871L1219.82 36.5L1141.6 84.8871L1123.45 73.5968L1183.13 36.5L1123.45 -0.596773L1141.6 -11.8871ZM1160.15 36.5L1111.76 66.3387L1063.37 36.5L1111.76 6.66129L1160.15 36.5ZM1081.92 -11.8871L1100.47 -0.596773L1040.79 36.5L1100.47 73.5968L1081.92 84.8871L1003.69 36.5L1081.92 -11.8871ZM884.339 -11.8871L962.565 36.5L884.339 84.8871L865.79 73.5968L925.468 36.5L865.79 -0.596773L884.339 -11.8871ZM854.5 6.66129L902.887 36.5L854.5 66.3387L806.113 36.5L854.5 6.66129ZM824.661 -11.8871L843.21 -0.596773L783.532 36.5L843.21 73.5968L824.661 84.8871L746.436 36.5L824.661 -11.8871Z" fill="#F0F0F0"/>
</g>
</g>
<defs>
<filter id="filter0_d_1_236" x="-38" y="0" width="1515" height="136" filterUnits="userSpaceOnUse" color-interpolation-filters="sRGB">
<feFlood flood-opacity="0" result="BackgroundImageFix"/>
<feColorMatrix in="SourceAlpha" type="matrix" values="0 0 0 0 0 0 0 0 0 0 0 0 0 0 0 0 0 0 127 0" result="hardAlpha"/>
<feOffset/>
<feGaussianBlur stdDeviation="18.5"/>
<feComposite in2="hardAlpha" operator="out"/>
<feColorMatrix type="matrix" values="0 0 0 0 0 0 0 0 0 0 0 0 0 0 0 0 0 0 0.1 0"/>
<feBlend mode="normal" in2="BackgroundImageFix" result="effect1_dropShadow_1_236"/>
<feBlend mode="normal" in="SourceGraphic" in2="effect1_dropShadow_1_236" result="shape"/>
</filter>
<clipPath id="clip0_1_236">
<rect x="-1" y="37" width="1441" height="62" rx="10" fill="white"/>
</clipPath>
</defs>
</svg>
